<svg id="Layer_1" data-name="Layer 1" xmlns="http://www.w3.org/2000/svg" viewBox="0 0 397.95 369.43"><defs><style>.cls-1{fill:#fff;}</style></defs><path class="cls-1" d="M205.79,496.09c-23.4-34.32-52.61-63.25-83.47-90.71-18.48-16.45-37-32.84-54.93-49.91-18.07-17.24-33.55-36.63-43.88-59.68a143.71,143.71,0,0,1-12.1-47.86c-.12-1.52-.41-3-.62-4.54V229.46a18.51,18.51,0,0,0,.49-2.53A103.57,103.57,0,0,1,28,176.61c15-23.09,35.74-38.52,62.26-45.84,7.38-2,15.12-2.78,22.7-4.11h13.93a14.69,14.69,0,0,0,2.21.58q45.41,4.76,74.19,40.18c2.21,2.7,4.23,5.56,6.56,8.65,1-1.38,1.83-2.51,2.65-3.65C229,149.52,251,135,278.69,129c4.62-1,9.32-1.59,14-2.37H306.6a11.64,11.64,0,0,0,1.89.48,104.18,104.18,0,0,1,57.08,21.47C389,166.52,403,190.13,407.44,219.37c.51,3.35.87,6.73,1.3,10.09v13.93c-.81,5.78-1.49,11.58-2.46,17.33-3.62,21.4-12.55,40.56-24.92,58.23-12.89,18.4-28.73,34.1-45.12,49.29-24.78,23-50,45.52-74.4,68.91a315.66,315.66,0,0,0-43.54,52.43c-1.47,2.19-3,4.34-4.56,6.51Z" transform="translate(-10.79 -126.66)"/></svg>